<svg width="412" height="285" viewBox="0 0 412 285" fill="none" xmlns="http://www.w3.org/2000/svg">
<path d="M30 213.382C30.0004 213.405 30.0016 213.478 30.0059 213.596C30.0144 213.832 30.0339 214.248 30.0762 214.817C30.1611 215.962 30.3362 217.695 30.6963 219.815C31.4286 224.126 32.8583 229.648 35.5547 234.991C38.2211 240.274 41.9825 245.115 47.3447 248.668C52.6161 252.161 60.314 255 71.8896 255C95.9798 255 105.132 246.429 109.031 240.63C111.273 237.297 112.422 233.902 112.997 231.312C113.28 230.035 113.409 229.022 113.466 228.411C113.492 228.126 113.502 227.936 113.506 227.857V217.5C119.706 230.163 127.659 241.81 137.053 252.124C136.146 253.852 135.111 255.609 133.927 257.37C123.706 272.57 104.549 285 71.8896 285C55.0909 285 41.4901 280.776 30.7744 273.676C20.1496 266.635 13.2348 257.35 8.77246 248.509C4.34032 239.727 2.18752 231.124 1.12012 224.841C0.580454 221.664 0.302589 218.983 0.158203 217.038C0.085834 216.063 0.0466617 215.265 0.0253906 214.674C0.0147517 214.378 0.00843956 214.133 0.00488281 213.942C0.00310326 213.847 0.00168324 213.765 0.000976562 213.697C0.000626154 213.664 0.00017091 213.633 0 213.606V213.553C-1.23976e-05 213.549 6.6931e-05 213.545 1.875 213.537L28.125 213.463C29.9999 213.456 30 213.452 30 213.448V213.414C29.9999 213.401 29.9991 213.39 29.999 213.384C29.9989 213.371 29.9998 213.37 30 213.382ZM143.506 46.2207C131.272 58.0792 121.08 72.0311 113.506 87.499V0H143.506V46.2207Z" fill="black"/>
<path d="M162.006 272.356C169.759 277.303 178.004 281.548 186.65 285H162.006V272.356ZM192.006 220.269C179.157 211.512 168.746 199.442 162.006 185.287V109.714C168.746 95.5581 179.156 83.4874 192.006 74.7305V220.269ZM192.006 7.98047C181.397 11.7443 171.345 16.684 162.006 22.6426V0H192.006V7.98047Z" fill="black"/>
<path d="M246.502 19C282.859 19 315.806 33.5897 339.814 57.2314L327.521 88.3936C308.662 64.4064 279.382 49 246.502 49C189.617 49 143.502 95.1147 143.502 152C143.502 205.833 184.8 250.018 237.442 254.605L249.513 284.965C248.512 284.987 247.508 285 246.502 285C173.048 285 113.502 225.454 113.502 152C113.502 78.5461 173.048 19 246.502 19Z" fill="black"/>
<path d="M298.53 285H265.469L207.006 137.946V66.5186C208.111 66.0472 209.228 65.5978 210.355 65.1709L281.959 245.276L378.805 0H411.06L298.53 285Z" fill="black"/>
</svg>
